<?xml version="1.0" encoding="UTF-8" standalone="no"?>
<!-- Created with Inkscape (http://www.inkscape.org/) -->

<svg
   xmlns:dc="http://purl.org/dc/elements/1.1/"
   xmlns:cc="http://creativecommons.org/ns#"
   xmlns:rdf="http://www.w3.org/1999/02/22-rdf-syntax-ns#"
   xmlns:svg="http://www.w3.org/2000/svg"
   xmlns="http://www.w3.org/2000/svg"
   xmlns:xlink="http://www.w3.org/1999/xlink"
   xmlns:sodipodi="http://sodipodi.sourceforge.net/DTD/sodipodi-0.dtd"
   xmlns:inkscape="http://www.inkscape.org/namespaces/inkscape"
   id="svg2"
   sodipodi:version="0.32"
   inkscape:version="0.47 r22583"
   width="72"
   height="72"
   version="1.0"
   sodipodi:docname="twistar_icon.svg"
   inkscape:output_extension="org.inkscape.output.svg.inkscape"
   inkscape:export-filename="/home/mstssk/Desktop/twistar.png"
   inkscape:export-xdpi="90"
   inkscape:export-ydpi="90">
  <metadata
     id="metadata7">
    <rdf:RDF>
      <cc:Work
         rdf:about="">
        <dc:format>image/svg+xml</dc:format>
        <dc:type
           rdf:resource="http://purl.org/dc/dcmitype/StillImage" />
        <dc:title />
      </cc:Work>
    </rdf:RDF>
  </metadata>
  <defs
     id="defs5">
    <inkscape:perspective
       sodipodi:type="inkscape:persp3d"
       inkscape:vp_x="0 : 526.18109 : 1"
       inkscape:vp_y="0 : 1000 : 0"
       inkscape:vp_z="744.09448 : 526.18109 : 1"
       inkscape:persp3d-origin="372.04724 : 350.78739 : 1"
       id="perspective9" />
    <linearGradient
       gradientUnits="userSpaceOnUse"
       y2="368.68018"
       x2="250"
       y1="249.86942"
       x1="250"
       id="linearGradient3340"
       xlink:href="#linearGradient3334"
       inkscape:collect="always" />
    <inkscape:perspective
       id="perspective10"
       inkscape:persp3d-origin="372.04724 : 350.78739 : 1"
       inkscape:vp_z="744.09448 : 526.18109 : 1"
       inkscape:vp_y="0 : 1000 : 0"
       inkscape:vp_x="0 : 526.18109 : 1"
       sodipodi:type="inkscape:persp3d" />
    <linearGradient
       id="linearGradient3334">
      <stop
         id="stop3336"
         offset="0"
         style="stop-color:#fafafa;stop-opacity:1;" />
      <stop
         id="stop3338"
         offset="1"
         style="stop-color:#e5e5e5;stop-opacity:1;" />
    </linearGradient>
    <linearGradient
       inkscape:collect="always"
       xlink:href="#linearGradient3334"
       id="linearGradient3251"
       gradientUnits="userSpaceOnUse"
       x1="250"
       y1="249.86942"
       x2="250"
       y2="368.68018"
       gradientTransform="translate(-648.79632,489.65959)" />
    <linearGradient
       inkscape:collect="always"
       xlink:href="#linearGradient3334"
       id="linearGradient3269"
       gradientUnits="userSpaceOnUse"
       gradientTransform="matrix(0.144,0,0,0.144,2.2128906e-6,10e-7)"
       x1="250"
       y1="249.86942"
       x2="250"
       y2="368.68018" />
    <linearGradient
       inkscape:collect="always"
       xlink:href="#linearGradient3334"
       id="linearGradient3288"
       gradientUnits="userSpaceOnUse"
       gradientTransform="matrix(0.144,0,0,0.144,2.2128906e-6,1e-6)"
       x1="250"
       y1="249.86942"
       x2="250"
       y2="368.68018" />
    <linearGradient
       inkscape:collect="always"
       xlink:href="#linearGradient3334"
       id="linearGradient3297"
       gradientUnits="userSpaceOnUse"
       gradientTransform="matrix(0.144,0,0,0.144,2.2128906e-6,1e-6)"
       x1="250"
       y1="249.86942"
       x2="250"
       y2="368.68018" />
    <linearGradient
       inkscape:collect="always"
       xlink:href="#linearGradient3334"
       id="linearGradient3311"
       gradientUnits="userSpaceOnUse"
       gradientTransform="matrix(0.144,0,0,0.144,0.44882974,-0.89765408)"
       x1="250"
       y1="249.86942"
       x2="250"
       y2="368.68018" />
    <inkscape:perspective
       id="perspective2858"
       inkscape:persp3d-origin="0.5 : 0.33333333 : 1"
       inkscape:vp_z="1 : 0.5 : 1"
       inkscape:vp_y="0 : 1000 : 0"
       inkscape:vp_x="0 : 0.5 : 1"
       sodipodi:type="inkscape:persp3d" />
    <linearGradient
       inkscape:collect="always"
       xlink:href="#linearGradient3334"
       id="linearGradient3887"
       gradientUnits="userSpaceOnUse"
       gradientTransform="matrix(0.144,0,0,0.144,2.2128906e-6,1e-6)"
       x1="250"
       y1="249.86942"
       x2="250"
       y2="368.68018" />
    <mask
       maskUnits="userSpaceOnUse"
       id="mask3883">
      <path
         id="path3885"
         d="m 27.71875,2.5625 c -4.626081,0 -8.40625,3.717678 -8.40625,8.34375 1e-6,2.931263 1.56232,5.533294 3.84375,7.03125 l 0,1.5 -20.59375,0 0,20.25 1.46875,0 c 1.4979599,-2.281423 4.0687395,-3.812498 7,-3.8125 4.62608,0 8.375,3.780179 8.375,8.40625 1e-6,4.626072 -3.74892,8.406252 -8.375,8.40625 -2.7389106,-10e-7 -5.15794,-1.341144 -6.6875,-3.375 l -1.78125,0 0,20.125 20.5,0 0,-1.5625 c -2.281431,-1.49796 -3.84375,-4.068739 -3.84375,-7 0,-4.62608 3.780171,-8.374999 8.40625,-8.375 4.626071,0 8.40625,3.748921 8.40625,8.375 -1.1e-5,2.73891 -1.34115,5.157941 -3.375,6.6875 l 0,1.875 19.9375,0 0,-19.9375 1.78125,0 c 1.529559,2.033857 3.948581,3.374999 6.6875,3.375 4.626059,3e-6 8.375,-3.811428 8.375,-8.4375 2e-6,-4.62607 -3.748929,-8.34375 -8.375,-8.34375 -2.931271,3e-6 -5.50205,1.499827 -7,3.78125 l -1.46875,0 0,-20.4375 -19.84375,0 0,-1.8125 c 2.033849,-1.529561 3.37499,-3.979833 3.375,-6.71875 -2e-6,-4.626073 -3.78018,-8.34375 -8.40625,-8.34375 z"
         style="fill:url(#linearGradient3887);fill-opacity:1;stroke:#000000;stroke-width:1;stroke-linecap:round;stroke-linejoin:round;stroke-miterlimit:10;stroke-opacity:1;stroke-dasharray:none" />
    </mask>
    <filter
       id="filter3959"
       inkscape:label="Drop shadow"
       width="1.5"
       height="1.5"
       x="-.25"
       y="-.25">
      <feGaussianBlur
         id="feGaussianBlur3961"
         in="SourceAlpha"
         stdDeviation="1.500000"
         result="blur" />
      <feColorMatrix
         id="feColorMatrix3963"
         result="bluralpha"
         type="matrix"
         values="1 0 0 0 0 0 1 0 0 0 0 0 1 0 0 0 0 0 0.800000 0 " />
      <feOffset
         id="feOffset3965"
         in="bluralpha"
         dx="-0.20000000000000001"
         dy="1.7"
         result="offsetBlur" />
      <feMerge
         id="feMerge3967">
        <feMergeNode
           id="feMergeNode3969"
           in="offsetBlur" />
        <feMergeNode
           id="feMergeNode3971"
           in="SourceGraphic" />
      </feMerge>
    </filter>
  </defs>
  <sodipodi:namedview
     inkscape:window-height="828"
     inkscape:window-width="1440"
     inkscape:pageshadow="2"
     inkscape:pageopacity="0.0"
     guidetolerance="10.0"
     gridtolerance="10.0"
     objecttolerance="10.0"
     borderopacity="1.0"
     bordercolor="#666666"
     pagecolor="#ffffff"
     id="base"
     showgrid="false"
     inkscape:zoom="6.684082"
     inkscape:cx="14.441773"
     inkscape:cy="32.078102"
     inkscape:window-x="0"
     inkscape:window-y="24"
     inkscape:current-layer="svg2"
     inkscape:window-maximized="1" />
  <path
     style="fill:url(#linearGradient3311);fill-opacity:1;stroke:#f2f2f2;stroke-width:1;stroke-linecap:round;stroke-linejoin:round;stroke-miterlimit:10;stroke-opacity:1;stroke-dasharray:none;filter:url(#filter3959)"
     d="m 28.167577,1.6648448 c -4.626081,0 -8.40625,3.717678 -8.40625,8.3437512 10e-7,2.931263 1.56232,5.533294 3.84375,7.03125 l 0,1.5 -20.5937494,0 0,20.25 1.46875,0 c 1.4979599,-2.281423 4.06874,-3.812498 6.9999994,-3.8125 4.62608,0 8.375,3.780179 8.375,8.40625 10e-7,4.626072 -3.74892,8.406252 -8.375,8.40625 -2.7389104,-10e-7 -5.1579394,-1.341144 -6.6874994,-3.375 l -1.78125,0 0,20.125 20.4999994,0 0,-1.5625 c -2.281431,-1.49796 -3.84375,-4.068739 -3.84375,-7 0,-4.62608 3.780171,-8.374999 8.40625,-8.375 4.626071,0 8.40625,3.748921 8.40625,8.375 -1.1e-5,2.73891 -1.34115,5.157941 -3.375,6.6875 l 0,1.875 19.9375,0 0,-19.9375 1.78125,0 c 1.529559,2.033857 3.948581,3.374999 6.6875,3.375 4.626059,3e-6 8.375,-3.811428 8.375,-8.4375 2e-6,-4.62607 -3.748929,-8.34375 -8.375,-8.34375 -2.931271,3e-6 -5.50205,1.499827 -7,3.78125 l -1.46875,0 0,-20.4375 -19.84375,0 0,-1.8125 c 2.033849,-1.529561 3.37499,-3.979833 3.375,-6.71875 -2e-6,-4.6260742 -3.78018,-8.3437512 -8.40625,-8.3437512 z"
     id="rect2516" />
  <g
     id="g3812"
     mask="url(#mask3883)"
     transform="translate(0.44882754,-0.89765508)">
    <path
       id="path3707"
       d="m 14.5,26.96875 c -6.332982,0.07193 -7.2923558,7.8648 -6.1928109,12.686831 -0.8621378,7.018584 0.3786973,16.161657 8.3490609,18.313169 7.215313,1.46363 14.743283,-0.367007 22.0625,0.28125 6.47584,-1.031868 11.224544,-8.618759 8.46875,-14.78125 2.877156,-4.885253 -1.610776,-11.991092 -7.46875,-10.375 -4.319508,-0.05208 -8.758935,-0.230679 -12.625,1.9375 -3.290121,-1.153362 -5.969534,-3.244971 -7.53125,-6.1875 -1.364456,-1.219659 -3.140931,-2.14963 -5.0625,-1.875 z"
       style="fill:#ffffff;fill-opacity:1;stroke:none" />
    <g
       transform="translate(0.1824666,-1.0813599)"
       id="g2894">
      <path
         id="path2908"
         d="m 30.159477,56.242422 c 1.030665,-0.0721 2.717208,-0.0721 3.747873,0 1.030665,0.0721 0.187394,0.131096 -1.873936,0.131096 -2.06133,0 -2.904602,-0.05899 -1.873937,-0.131096 z M 41.6708,53.471581 c 0.244394,-0.294475 0.524663,-0.53541 0.622822,-0.53541 0.09816,0 -0.02149,0.240935 -0.265882,0.53541 -0.244393,0.294476 -0.524662,0.535411 -0.622821,0.535411 -0.09816,0 0.02149,-0.240935 0.265881,-0.535411 z M 26.32237,50.973 c 0.244393,-0.294476 0.524662,-0.535411 0.622821,-0.535411 0.09816,0 -0.02149,0.240935 -0.265881,0.535411 -0.244393,0.294475 -0.524662,0.53541 -0.622821,0.53541 -0.09816,0 0.02149,-0.240935 0.265881,-0.53541 z m 17.559657,-1.784701 c -0.0073,-0.588952 0.06677,-0.873099 0.164546,-0.631439 0.09777,0.24166 0.103723,0.723529 0.01321,1.070821 -0.09048,0.347291 -0.170478,0.149569 -0.177753,-0.439382 z M 26.27684,46.957422 c -0.443987,-0.566127 -0.431362,-0.578752 0.134765,-0.134765 0.343555,0.269435 0.624645,0.550525 0.624645,0.624646 0,0.293774 -0.293114,0.104692 -0.75941,-0.489881 z m 14.233904,-1.03951 c 0.245397,-0.09902 0.646955,-0.09902 0.892351,0 0.245396,0.09902 0.04462,0.180035 -0.446175,0.180035 -0.490793,0 -0.691572,-0.08102 -0.446176,-0.180035 z"
         style="fill:#fce7a0" />
      <path
         id="path2906"
         d="m 20.522091,56.269179 c 0.245396,-0.09902 0.646954,-0.09902 0.892351,0 0.245396,0.09902 0.04462,0.180035 -0.446176,0.180035 -0.490793,0 -0.691572,-0.08102 -0.446175,-0.180035 z m 2.944757,-1.012896 c 0.244393,-0.294476 0.524662,-0.535411 0.622821,-0.535411 0.09816,0 -0.02149,0.240935 -0.265881,0.535411 -0.244393,0.294475 -0.524662,0.53541 -0.622821,0.53541 -0.09816,0 0.02149,-0.240935 0.265881,-0.53541 z m -9.664402,-1.873937 -0.865335,-0.981585 0.981585,0.865335 c 0.91744,0.808786 1.145275,1.097836 0.865336,1.097836 -0.06394,0 -0.505652,-0.441714 -0.981586,-0.981586 z m 10.406462,0.475921 c -0.0155,-0.376275 0.06886,-0.587093 0.187472,-0.468484 0.118608,0.118608 0.131289,0.426469 0.02818,0.684135 -0.113944,0.284743 -0.198524,0.200164 -0.215651,-0.215651 z M 11.359059,48.861103 c -0.0155,-0.376274 0.06886,-0.587092 0.187472,-0.468484 0.118608,0.118609 0.131289,0.426469 0.02818,0.684136 -0.113945,0.284743 -0.198524,0.200163 -0.215652,-0.215652 z m 6.191649,-3.063737 0.02663,-1.963171 2.498582,-0.02848 2.498581,-0.02848 -2.392008,0.133626 -2.392009,0.133626 -0.133199,1.858023 -0.133198,1.858021 0.02662,-1.963172 z m -0.04488,-9.994327 c 0,-1.079744 0.06691,-1.521457 0.148698,-0.981585 0.08178,0.539872 0.08178,1.423299 0,1.963171 -0.08178,0.539872 -0.148698,0.09816 -0.148698,-0.981586 z"
         style="fill:#a4dafc" />
      <path
         id="path2904"
         d="m 18.72662,60.171089 c 0.828424,-0.07486 2.274032,-0.07575 3.212462,-0.0021 0.93843,0.07377 0.260628,0.135019 -1.506226,0.136104 -1.766854,0.0011 -2.534661,-0.05927 -1.706236,-0.134127 z m 10.344511,-0.0045 c 1.609977,-0.06598 4.34057,-0.06632 6.067984,-7.13e-4 1.727414,0.06557 0.41016,0.119557 -2.927231,0.119967 -3.337391,3.57e-4 -4.75073,-0.05324 -3.140753,-0.119221 z m 10.014077,-0.328802 c 0.246619,-0.09943 0.342269,-0.352497 0.212554,-0.562381 -0.14057,-0.227446 -0.06702,-0.277264 0.182069,-0.123319 0.491405,0.303706 0.196339,0.935376 -0.417913,0.894656 -0.304271,-0.02017 -0.29765,-0.07957 0.02329,-0.208956 z m -23.471045,-0.47673 c 0.294475,-0.190306 0.696033,-0.346007 0.89235,-0.346007 0.196317,0 0.116006,0.155701 -0.17847,0.346007 -0.294476,0.190307 -0.696033,0.346008 -0.892351,0.346008 -0.196317,0 -0.116005,-0.155701 0.178471,-0.346008 z m -2.379602,-1.24929 c 0,-0.257044 0.214164,-0.385167 0.47592,-0.284721 0.261756,0.100447 0.475921,0.22857 0.475921,0.284721 0,0.05615 -0.214165,0.184274 -0.475921,0.28472 -0.261756,0.100447 -0.47592,-0.02766 -0.47592,-0.28472 z m 30.856123,-0.925193 c 0.236194,-0.312538 0.31037,-0.687326 0.164835,-0.832861 -0.145532,-0.145534 -0.02367,-0.211067 0.270803,-0.145628 0.294476,0.06544 0.504178,-0.05503 0.466007,-0.267705 -0.03817,-0.212677 0.162604,-0.386685 0.446175,-0.386685 0.664391,0 0.6991,-0.06343 -0.630845,1.152765 -0.630531,0.576602 -0.953173,0.792653 -0.716975,0.480114 z M 8.9933665,54.335776 c -0.090458,-0.146364 0.072582,-0.231325 0.3623104,-0.188802 0.7458601,0.109469 1.0141211,0.454918 0.3532702,0.454918 -0.3031111,0 -0.6251226,-0.119752 -0.7155806,-0.266116 z M 47.24747,52.386962 c -0.34444,-0.897596 -0.24283,-1.1292 0.177946,-0.405605 0.208342,0.358279 0.303613,0.726609 0.211712,0.81851 -0.0919,0.0919 -0.267249,-0.09391 -0.389658,-0.412905 z M 7.7724087,52.04382 c 0,-0.196317 0.155704,-0.597874 0.3460088,-0.89235 0.1903048,-0.294476 0.3460087,-0.374787 0.3460087,-0.17847 0,0.196317 -0.1557039,0.597875 -0.3460087,0.89235 -0.1903048,0.294476 -0.3460088,0.374788 -0.3460088,0.17847 z M 48.197813,49.188299 c 0.0029,-0.981586 0.072,-1.34078 0.154045,-0.798208 0.08205,0.542571 0.07985,1.345687 -0.0049,1.784701 -0.08474,0.439014 -0.151867,-0.0049 -0.14919,-0.986493 z M 7.2019532,41.157143 c 0,-4.80977 0.050525,-6.777403 0.1122781,-4.372518 0.061753,2.404885 0.061753,6.340151 0,8.745036 -0.061753,2.404885 -0.1122781,0.437252 -0.1122781,-4.372518 z m 39.8229508,5.375169 c 0,-0.184731 0.158785,-0.434008 0.352853,-0.553949 0.202335,-0.12505 0.262173,0.01823 0.140281,0.335875 -0.23729,0.618369 -0.493134,0.731509 -0.493134,0.218074 z m 0.163793,-2.543395 c -0.129402,-0.209378 -0.158725,-0.45724 -0.06516,-0.550804 0.09356,-0.09356 0.265228,0.07775 0.38148,0.380688 0.241356,0.628967 0.03566,0.739601 -0.31632,0.170116 z m 1.013988,-3.188714 c 0,-1.079744 0.06692,-1.521458 0.148698,-0.981586 0.08179,0.539872 0.08179,1.423299 0,1.963172 -0.08178,0.539872 -0.148698,0.09816 -0.148698,-0.981586 z m -1.177781,-2.834457 c 0,-0.184731 0.158785,-0.434008 0.352853,-0.553949 0.202335,-0.12505 0.262173,0.01823 0.140281,0.335875 -0.23729,0.618369 -0.493134,0.731509 -0.493134,0.218074 z m -1.283204,-1.895001 -0.679967,-0.803116 0.803115,0.679967 c 0.441714,0.373982 0.803116,0.735384 0.803116,0.803116 0,0.285642 -0.287262,0.07476 -0.926264,-0.679967 z m -19.988654,-0.356941 -0.679967,-0.803115 0.892351,0.710076 c 0.490792,0.390543 0.959276,0.751945 1.041075,0.803116 0.0818,0.05117 -0.01377,0.09304 -0.212384,0.09304 -0.198609,0 -0.667093,-0.361402 -1.041075,-0.803116 z m 1.759125,-0.07353 c 0,-0.28584 0.136472,-0.435365 0.303272,-0.332277 0.1668,0.103088 0.210862,0.336957 0.09792,0.519709 -0.288631,0.467014 -0.401187,0.414429 -0.401187,-0.187432 z m 1.489777,-0.903964 c -0.12505,-0.202335 0.01823,-0.262175 0.335875,-0.140281 0.618369,0.23729 0.731509,0.493133 0.218075,0.493133 -0.184732,0 -0.434009,-0.158783 -0.55395,-0.352852 z m 2.174537,-0.419777 c 0.08112,-0.130471 -0.01413,-0.291094 -0.211668,-0.356941 -0.19754,-0.06585 2.598978,-0.119721 6.214485,-0.119721 3.615506,0 6.493915,0.08031 6.39646,0.17847 -0.271207,0.273169 -12.567587,0.568886 -12.399277,0.298192 z m -10.202753,-0.5659 c 0.003,-0.343555 0.168508,-0.86558 0.367783,-1.160056 0.265358,-0.39213 0.297673,-0.258277 0.120754,0.500182 l -0.241562,1.035591 1.550694,-0.207991 c 1.002921,-0.13452 1.368118,-0.09249 1.033836,0.118998 -0.284273,0.179844 -1.038884,0.329449 -1.676915,0.332456 -0.870991,0.0041 -1.158694,-0.150185 -1.15459,-0.61918 z m -0.504109,-2.171386 c -0.101109,-0.163598 0.04297,-0.297451 0.320173,-0.297451 0.277204,0 0.421282,0.133853 0.320173,0.297451 -0.101108,0.163597 -0.245187,0.29745 -0.320173,0.29745 -0.07499,0 -0.219065,-0.133853 -0.320173,-0.29745 z M 8.3336545,30.865366 c -0.1011089,-0.163598 0.042969,-0.29745 0.3201733,-0.29745 0.2772041,0 0.4212823,0.133852 0.3201733,0.29745 -0.1011087,0.163598 -0.2451869,0.29745 -0.3201733,0.29745 -0.074986,0 -0.2190645,-0.133852 -0.3201733,-0.29745 z M 19.138035,29.82429 c -0.443987,-0.566127 -0.431362,-0.578752 0.134765,-0.134764 0.343555,0.269434 0.624645,0.550524 0.624645,0.624645 0,0.293774 -0.293114,0.104692 -0.75941,-0.489881 z m -8.758996,-0.965884 c 0,-0.28584 0.136473,-0.435364 0.303273,-0.332276 0.166799,0.103088 0.210861,0.336957 0.09791,0.519709 -0.288631,0.467014 -0.401187,0.414428 -0.401187,-0.187433 z m 7.079132,-0.149964 c -0.39181,-0.248368 -0.386544,-0.336169 0.02974,-0.495914 0.28855,-0.110727 0.505848,0.02127 0.505848,0.307268 0,0.275758 -0.01338,0.498919 -0.02974,0.495913 -0.01636,-0.003 -0.243991,-0.141276 -0.505848,-0.307267 z M 12.14148,28.017683 c -0.24128,-0.153273 0.623897,-0.211018 1.922616,-0.128322 1.676121,0.106727 2.290015,0.035 2.115619,-0.247177 -0.158639,-0.256683 -0.03882,-0.318148 0.338187,-0.173479 0.467298,0.179319 0.488817,0.284314 0.107774,0.525857 -0.598431,0.379345 -3.896666,0.396351 -4.484196,0.02312 z"
         style="fill:#cacaca" />
      <path
         id="path2902"
         d="M 15.186646,59.213379 C 11.893122,57.872091 9.8607185,55.844804 8.2571701,52.301348 7.431233,50.476226 7.404537,50.137712 7.404537,41.489686 c 0,-8.05612 0.065975,-9.056815 0.6758986,-10.251854 0.8348599,-1.635764 1.6457053,-2.386939 3.3412784,-3.095395 3.933784,-1.64364 8.906669,0.389279 9.890589,4.043281 0.333599,1.23889 0.517306,1.408021 1.742112,1.603875 0.753053,0.120418 1.929686,0.599306 2.61474,1.064196 l 1.245553,0.845256 1.756237,-0.926923 c 1.658446,-0.87531 2.096653,-0.933645 7.869781,-1.047641 5.511037,-0.108821 6.268225,-0.05025 7.683061,0.594279 0.863235,0.393248 1.840501,1.014432 2.171703,1.380407 1.642168,1.814576 2.200279,5.711891 1.170803,8.175777 -0.473085,1.132253 -0.469041,1.383903 0.03803,2.36446 0.792993,1.533481 0.532295,4.994831 -0.532012,7.063653 -1.483511,2.883676 -4.322882,5.282568 -7.54315,6.37296 -0.294476,0.09971 -5.434415,0.222763 -11.422088,0.273448 -10.671857,0.09034 -10.926808,0.07581 -12.920425,-0.736086 z m 10.243373,0.237894 c 0.392634,0.03377 3.605097,0.06745 7.138805,0.07485 6.274354,0.01314 6.470932,-0.0092 8.388096,-0.952077 5.193384,-2.554185 7.76939,-7.510133 6.276323,-12.07493 -0.495808,-1.51584 -0.519612,-1.932919 -0.136662,-2.394349 0.290614,-0.350166 0.463733,-1.570985 0.463733,-3.270189 0,-3.197747 -0.683594,-4.460745 -3.218384,-5.946231 -1.538444,-0.901587 -1.669156,-0.915494 -7.561656,-0.804492 -5.73882,0.108106 -6.083955,0.15607 -8.042098,1.117631 l -2.045947,1.004678 -1.242388,-0.947616 C 24.766528,34.73736 23.571474,34.22563 22.794166,34.121371 21.6494,33.967826 21.330557,33.753531 21.116021,32.993488 20.970349,32.477412 20.874341,31.94421 20.90267,31.808597 c 0.122395,-0.585925 -3.188902,-3.420475 -4.241757,-3.631046 -1.824535,-0.364907 -3.837524,-0.263831 -5.079369,0.255045 -1.530369,0.639429 -3.3741021,2.78505 -3.6480629,4.245387 -0.1210814,0.645419 -0.1691597,5.025832 -0.1068409,9.734253 0.1124683,8.497389 0.1203982,8.574202 1.0711734,10.376026 1.6443914,3.116304 4.9337744,5.877881 7.9656394,6.687493 0.392635,0.104848 2.320112,0.128413 4.283283,0.05237 1.963172,-0.07604 3.890649,-0.110627 4.283283,-0.07685 z"
         style="fill:#bfbfbf" />
      <path
         id="path2900"
         d="m 35.500548,43.749966 c 1.023497,-0.07185 2.790351,-0.07251 3.926343,-0.0015 1.135991,0.07105 0.298585,0.129839 -1.860904,0.130644 -2.159488,8.21e-4 -3.088936,-0.05733 -2.065439,-0.12918 z m 0.02702,-6.069926 c 1.234676,-0.0699 3.162153,-0.06932 4.283283,0.0013 1.121129,0.0706 0.110942,0.127795 -2.244864,0.127089 -2.355805,-7.14e-4 -3.273094,-0.05847 -2.038418,-0.128374 z"
         style="fill:#fdd961" />
      <path
         id="path2898"
         d="m 26.806297,55.302539 c -1.271527,-1.093721 -1.359951,-3.076264 -0.189476,-4.248236 0.725108,-0.726037 1.19657,-0.805404 5.421774,-0.912711 l 4.627606,-0.117527 0.806834,-1.070037 c 1.711504,-2.269829 2.370885,-2.799722 3.483885,-2.799722 1.513694,0 2.855522,1.385231 2.855522,2.947886 0,1.463582 -1.623243,4.130115 -3.195872,5.249927 -1.878956,1.337935 -4.0793,1.796514 -8.619981,1.796514 -3.91116,0 -4.275744,-0.05943 -5.190292,-0.846094 z m 0.586894,-7.81679 c -1.348103,-0.694912 -1.922834,-2.15147 -1.433716,-3.633511 0.690357,-2.091802 2.326779,-3.970421 4.326631,-4.966989 1.771337,-0.882695 2.197792,-0.940568 6.930805,-0.940568 4.810223,0 5.079202,0.03818 5.819432,0.826121 1.053116,1.120991 1.040102,3.08672 -0.02702,4.081074 -0.71266,0.664065 -1.319273,0.761528 -5.385851,0.865335 -4.507155,0.115055 -4.595456,0.133093 -5.354103,1.093742 -0.42425,0.537217 -1.092612,1.374878 -1.485246,1.861469 -0.885589,1.097508 -2.219128,1.417362 -3.390932,0.813327 z"
         style="fill:#fdce31" />
      <path
         id="path2896"
         d="m 18.110433,55.815129 c -2.920127,-0.888262 -5.399597,-3.358874 -6.252185,-6.229849 -0.695591,-2.342311 -0.746242,-14.934945 -0.06549,-16.280822 0.664621,-1.313974 2.166299,-1.933788 3.53184,-1.457758 1.594546,0.555861 2.050088,1.370404 2.06291,3.688634 l 0.01135,2.052407 1.974636,0 c 3.916877,0 5.769425,1.786808 4.644336,4.479525 -0.560959,1.342565 -1.057372,1.535992 -4.298861,1.675052 l -2.141641,0.09188 -0.107327,2.061771 c -0.09787,1.880184 -0.01384,2.155258 0.954128,3.123227 0.825358,0.825358 1.380712,1.061456 2.49677,1.061456 2.043651,0 3.331211,1.172681 3.331211,3.033992 0,1.970222 -1.278452,3.045298 -3.571459,3.003312 -0.921559,-0.01687 -2.07816,-0.153144 -2.570224,-0.302824 z"
         style="fill:#34affd" />
    </g>
  </g>
</svg>
